<svg xmlns="http://www.w3.org/2000/svg" viewBox="0 0 512 512" role="img" aria-labelledby="title desc">
  <title id="title">Логотип капельницы</title>
  <desc id="desc">Минималистичная медицинская капля с крестом в графитово-изумрудной палитре.</desc>
  <defs>
    <linearGradient id="emerald" x1="88" y1="38" x2="426" y2="470" gradientUnits="userSpaceOnUse">
      <stop offset="0" stop-color="#111513"/>
      <stop offset="0.52" stop-color="#0f5c49"/>
      <stop offset="1" stop-color="#18b979"/>
    </linearGradient>
    <radialGradient id="shine" cx="35%" cy="22%" r="55%">
      <stop offset="0" stop-color="#ffffff" stop-opacity="0.72"/>
      <stop offset="0.42" stop-color="#ffffff" stop-opacity="0.18"/>
      <stop offset="1" stop-color="#ffffff" stop-opacity="0"/>
    </radialGradient>
    <filter id="shadow" x="-20%" y="-20%" width="140%" height="150%">
      <feDropShadow dx="0" dy="26" stdDeviation="24" flood-color="#111513" flood-opacity="0.18"/>
    </filter>
  </defs>
  <circle cx="256" cy="256" r="218" fill="#fbfbf8"/>
  <path filter="url(#shadow)" fill="url(#emerald)" d="M256 54c-64 82-128 158-128 248 0 78 55 142 128 142s128-64 128-142c0-90-64-166-128-248Z"/>
  <path fill="url(#shine)" d="M225 96c-36 52-70 104-70 166 0 59 36 111 93 127-34-41-27-105 0-164 16-35 19-77-23-129Z"/>
  <path fill="#ffffff" d="M236 202c0-9 7-16 16-16h8c9 0 16 7 16 16v48h48c9 0 16 7 16 16v8c0 9-7 16-16 16h-48v48c0 9-7 16-16 16h-8c-9 0-16-7-16-16v-48h-48c-9 0-16-7-16-16v-8c0-9 7-16 16-16h48v-48Z"/>
  <path fill="none" stroke="#ffffff" stroke-opacity="0.42" stroke-width="10" stroke-linecap="round" d="M310 126c34 50 50 92 50 139"/>
</svg>
